<svg width="640" height="360" viewBox="0 0 640 360" fill="none" xmlns="http://www.w3.org/2000/svg" role="img" aria-labelledby="title desc">
  <title id="title">Bãi xe Quốc lộ 22</title>
  <desc id="desc">Ảnh minh họa riêng cho bãi xe Quốc lộ 22</desc>
  <defs>
    <linearGradient id="bg" x1="48" y1="24" x2="592" y2="336" gradientUnits="userSpaceOnUse">
      <stop stop-color="#06283D" />
      <stop offset="1" stop-color="#0F4C75" />
    </linearGradient>
    <linearGradient id="accent" x1="150" y1="90" x2="494" y2="270" gradientUnits="userSpaceOnUse">
      <stop stop-color="#38BDF8" />
      <stop offset="1" stop-color="#22C55E" />
    </linearGradient>
  </defs>
  <rect width="640" height="360" rx="28" fill="url(#bg)" />
  <circle cx="560" cy="70" r="86" fill="#38BDF8" fill-opacity="0.14" />
  <circle cx="96" cy="280" r="116" fill="#22C55E" fill-opacity="0.08" />
  <rect x="60" y="62" width="520" height="236" rx="26" fill="#0B1220" fill-opacity="0.62" stroke="#7DD3FC" stroke-opacity="0.2" />
  <rect x="104" y="106" width="210" height="144" rx="20" fill="url(#accent)" fill-opacity="0.14" stroke="#38BDF8" stroke-opacity="0.4" />
  <path d="M156 220V138C156 131.373 161.373 126 168 126H224C242.778 126 258 141.222 258 160C258 178.778 242.778 194 224 194H186V220H156ZM186 170H220C225.523 170 230 165.523 230 160C230 154.477 225.523 150 220 150H186V170Z" fill="#E2E8F0" />
  <rect x="336" y="112" width="176" height="20" rx="10" fill="#E2E8F0" fill-opacity="0.72" />
  <rect x="336" y="146" width="150" height="14" rx="7" fill="#CBD5E1" fill-opacity="0.36" />
  <rect x="336" y="172" width="168" height="14" rx="7" fill="#CBD5E1" fill-opacity="0.36" />
  <rect x="336" y="198" width="128" height="14" rx="7" fill="#CBD5E1" fill-opacity="0.36" />
  <rect x="336" y="232" width="132" height="36" rx="18" fill="#0B1220" stroke="#38BDF8" stroke-opacity="0.5" />
  <text x="402" y="255" text-anchor="middle" font-family="Arial, Helvetica, sans-serif" font-size="14" fill="#E2E8F0">Quốc lộ 22</text>
  <text x="336" y="300" font-family="Arial, Helvetica, sans-serif" font-size="13" fill="#BFDBFE">Ảnh đại diện riêng cho bãi xe Quốc lộ 22</text>
  <path d="M104 282H536" stroke="#38BDF8" stroke-width="2" stroke-dasharray="8 10" opacity="0.45" />
</svg>
