<svg width="640" height="360" viewBox="0 0 640 360" fill="none" xmlns="http://www.w3.org/2000/svg" role="img" aria-labelledby="title desc">
  <title id="title">Bãi xe Quốc lộ 22</title>
  <desc id="desc">Ảnh placeholder minh họa cho bãi xe</desc>
  <defs>
    <linearGradient id="bg" x1="0" y1="0" x2="640" y2="360" gradientUnits="userSpaceOnUse">
      <stop stop-color="#0F172A" />
      <stop offset="1" stop-color="#1E293B" />
    </linearGradient>
    <linearGradient id="accent" x1="96" y1="56" x2="544" y2="304" gradientUnits="userSpaceOnUse">
      <stop stop-color="#38BDF8" />
      <stop offset="1" stop-color="#06B6D4" />
    </linearGradient>
  </defs>
  <rect width="640" height="360" rx="28" fill="url(#bg)" />
  <circle cx="548" cy="88" r="88" fill="#0EA5E9" fill-opacity="0.15" />
  <circle cx="96" cy="286" r="110" fill="#22C55E" fill-opacity="0.08" />
  <rect x="72" y="74" width="496" height="212" rx="22" fill="#0B1220" fill-opacity="0.6" stroke="#334155" stroke-width="2" />
  <rect x="108" y="110" width="182" height="140" rx="18" fill="url(#accent)" fill-opacity="0.12" stroke="#38BDF8" stroke-opacity="0.35" />
  <path d="M150 212V146C150 137.163 157.163 130 166 130H218C239.091 130 256 146.909 256 168C256 189.091 239.091 206 218 206H182V212H150ZM182 180H216C222.627 180 228 174.627 228 168C228 161.373 222.627 156 216 156H182V180Z" fill="#E2E8F0" />
  <rect x="320" y="114" width="204" height="20" rx="10" fill="#94A3B8" fill-opacity="0.45" />
  <rect x="320" y="146" width="156" height="14" rx="7" fill="#94A3B8" fill-opacity="0.3" />
  <rect x="320" y="172" width="168" height="14" rx="7" fill="#94A3B8" fill-opacity="0.3" />
  <rect x="320" y="198" width="138" height="14" rx="7" fill="#94A3B8" fill-opacity="0.3" />
  <rect x="320" y="230" width="118" height="34" rx="17" fill="#0F172A" stroke="#38BDF8" stroke-opacity="0.5" />
  <text x="379" y="251" text-anchor="middle" font-family="Arial, Helvetica, sans-serif" font-size="14" fill="#E2E8F0">Bãi xe Quốc lộ 22</text>
  <text x="320" y="300" font-family="Arial, Helvetica, sans-serif" font-size="13" fill="#CBD5E1" fill-opacity="0.85">Ảnh minh họa khi bãi xe chưa có thumbnail</text>
  <path d="M108 282H532" stroke="#334155" stroke-width="2" stroke-dasharray="8 10" />
</svg>
